<svg width="64" height="64" viewBox="0 0 64 64" fill="none" xmlns="http://www.w3.org/2000/svg">
  <!-- White circle background -->
  <circle cx="32" cy="32" r="30" fill="white"/>
  <!-- Fix logo (just Fix portion) - scaled and centered -->
  <g transform="translate(7, 20) scale(0.5)">
    <path d="M35.1986 6.4H17.4706C15.4226 6.4 13.5666 6.912 11.9026 7.936C10.2386 8.96 8.89463 10.3253 7.87063 12.032C6.88929 13.696 6.39863 15.552 6.39863 17.6V48H-0.00137472V16C-0.00137472 13.7387 0.467959 11.648 1.40663 9.728C2.34529 7.76533 3.62529 6.08 5.24663 4.672C6.91063 3.22133 8.78796 2.09067 10.8786 1.28C12.9693 0.426664 15.1666 -3.8147e-06 17.4706 -3.8147e-06H35.1986V6.4ZM48.8306 4.8C48.8306 6.12266 48.3613 7.25333 47.4226 8.192C46.484 9.13066 45.3533 9.6 44.0306 9.6C42.708 9.6 41.5773 9.13066 40.6386 8.192C39.7 7.25333 39.2306 6.12266 39.2306 4.8C39.2306 3.47733 39.7 2.34666 40.6386 1.408C41.5773 0.46933 42.708 -3.8147e-06 44.0306 -3.8147e-06C45.3533 -3.8147e-06 46.484 0.46933 47.4226 1.408C48.3613 2.34666 48.8306 3.47733 48.8306 4.8ZM47.2306 48H40.8306V22.4H9.59863V16H47.2306V48ZM97.7161 48H88.5641L74.8681 34.752L61.4281 48H52.2761L70.4521 30.464L52.2761 12.8H61.4281L97.7161 48ZM97.7161 12.8L82.4841 27.648L77.8761 23.552L88.5641 12.8H97.7161Z" fill="#000000"/>
  </g>
</svg>
